<svg width="327.7624267578125px" height="121.39999999999999px" xmlns="http://www.w3.org/2000/svg" viewBox="86.11878662109376 14.300000000000004 327.7624267578125 121.39999999999999" style="background: rgba(40, 41, 47, 0);" preserveAspectRatio="xMidYMid"><defs><filter id="editing-hover" x="-100%" y="-100%" width="300%" height="300%"><feFlood flood-color="rgba(3.9215686274509802%,3.9215686274509802%,3.9215686274509802%,0)" result="flood"></feFlood><feComposite operator="in" in2="SourceAlpha" in="flood" result="shadow"></feComposite><feOffset dx="-4" dy="-4" in="SourceGraphic" result="offset-1"></feOffset><feOffset dx="4" dy="4" in="shadow" result="offset-2"></feOffset><feMerge><feMergeNode in="offset-2"></feMergeNode><feMergeNode in="offset-1"></feMergeNode></feMerge></filter></defs><g filter="url(#editing-hover)"><g transform="translate(136.17498636245728, 97.46500015258789)"><path d="M6.21-31.17L6.21-31.17L6.21-31.17Q4.03-32.83 4.03-36.38L4.03-36.38L4.03-36.38Q4.03-39.94 6.37-41.79L6.37-41.79L6.37-41.79Q8.70-43.65 12.74-43.65L12.74-43.65L12.74-43.65Q15.30-43.65 21.38-42.75L21.38-42.75L25.73-42.11L25.73-42.11Q27.90-41.86 30.18-41.86L30.18-41.86L30.18-41.86Q32.45-41.86 33.98-42.82L33.98-42.82L33.98-42.82Q36.29-40.77 36.29-37.82L36.29-37.82L36.29-37.82Q36.29-34.88 33.66-32.77L33.66-32.77L33.66-32.77Q30.98-30.53 27.52-30.53L27.52-30.53L27.52-30.53Q25.86-30.53 23.17-30.98L23.17-30.98L23.17-30.98Q20.03-21.12 20.03-14.27L20.03-14.27L20.03-14.27Q20.03-7.42 23.49-3.84L23.49-3.84L23.49-3.84Q21.89-0.96 19.52 0.16L19.52 0.16L19.52 0.16Q17.15 1.28 13.60 1.28L13.60 1.28L13.60 1.28Q10.05 1.28 7.84-0.67L7.84-0.67L7.84-0.67Q5.63-2.62 5.63-6.66L5.63-6.66L5.63-6.66Q5.63-11.33 8.19-19.01L8.19-19.01L8.19-19.01Q10.75-26.62 14.59-32.45L14.59-32.45L14.59-32.45Q12.74-32.64 10.82-32.64L10.82-32.64L10.82-32.64Q6.85-32.64 6.21-31.17ZM45.25 1.28L45.25 1.28L45.25 1.28Q31.17 1.28 31.17-11.97L31.17-11.97L31.17-11.97Q31.17-21.38 36.35-27.46L36.35-27.46L36.35-27.46Q41.86-33.92 51.39-33.92L51.39-33.92L51.39-33.92Q58.30-33.92 61.82-30.72L61.82-30.72L61.82-30.72Q65.34-27.52 65.34-20.80L65.34-20.80L65.34-20.80Q65.34-10.56 59.84-4.61L59.84-4.61L59.84-4.61Q54.46 1.28 45.25 1.28ZM46.91-26.56L46.91-26.56L46.91-26.56Q46.14-24.83 45.54-22.24L45.54-22.24L45.54-22.24Q44.93-19.65 44.16-15.55L44.16-15.55L44.16-15.55Q43.39-11.46 43.39-6.40L43.39-6.40L43.39-6.40Q43.39-4.74 43.94-3.65L43.94-3.65L43.94-3.65Q44.48-2.56 45.95-2.56L45.95-2.56L45.95-2.56Q47.42-2.56 48.35-3.26L48.35-3.26L48.35-3.26Q49.28-3.97 49.98-5.63L49.98-5.63L49.98-5.63Q51.26-8.58 52.29-14.05L52.29-14.05L52.29-14.05Q53.31-19.52 53.41-21.89L53.41-21.89L53.41-21.89Q53.50-24.26 53.50-26.02L53.50-26.02L53.50-26.02Q53.50-27.78 52.99-28.93L52.99-28.93L52.99-28.93Q52.48-30.08 51.04-30.08L51.04-30.08L51.04-30.08Q49.60-30.08 48.64-29.18L48.64-29.18L48.64-29.18Q47.68-28.29 46.91-26.56ZM83.07 1.28L83.07 1.28L83.07 1.28Q68.99 1.28 68.99-11.97L68.99-11.97L68.99-11.97Q68.99-21.38 74.18-27.46L74.18-27.46L74.18-27.46Q79.68-33.92 89.22-33.92L89.22-33.92L89.22-33.92Q96.13-33.92 99.65-30.72L99.65-30.72L99.65-30.72Q103.17-27.52 103.17-20.80L103.17-20.80L103.17-20.80Q103.17-10.56 97.66-4.61L97.66-4.61L97.66-4.61Q92.29 1.28 83.07 1.28ZM84.74-26.56L84.74-26.56L84.74-26.56Q83.97-24.83 83.36-22.24L83.36-22.24L83.36-22.24Q82.75-19.65 81.98-15.55L81.98-15.55L81.98-15.55Q81.22-11.46 81.22-6.40L81.22-6.40L81.22-6.40Q81.22-4.74 81.76-3.65L81.76-3.65L81.76-3.65Q82.30-2.56 83.78-2.56L83.78-2.56L83.78-2.56Q85.25-2.56 86.18-3.26L86.18-3.26L86.18-3.26Q87.10-3.97 87.81-5.63L87.81-5.63L87.81-5.63Q89.09-8.58 90.11-14.05L90.11-14.05L90.11-14.05Q91.14-19.52 91.23-21.89L91.23-21.89L91.23-21.89Q91.33-24.26 91.33-26.02L91.33-26.02L91.33-26.02Q91.33-27.78 90.82-28.93L90.82-28.93L90.82-28.93Q90.30-30.08 88.86-30.08L88.86-30.08L88.86-30.08Q87.42-30.08 86.46-29.18L86.46-29.18L86.46-29.18Q85.50-28.29 84.74-26.56ZM148.48-26.56L148.48-26.56L148.48-26.56Q148.48 0.70 118.91 0.70L118.91 0.70L118.91 0.70Q114.18 0.70 106.37-0.45L106.37-0.45L113.54-38.27L113.54-38.27Q114.05-40.83 114.37-42.30L114.37-42.30L114.37-42.30Q124.10-43.01 128.42-43.01L128.42-43.01L128.42-43.01Q132.74-43.01 136.70-42.11L136.70-42.11L136.70-42.11Q140.67-41.22 143.30-39.23L143.30-39.23L143.30-39.23Q148.48-35.33 148.48-26.56ZM135.30-28.93L135.30-28.93L135.30-28.93Q135.30-38.46 128.45-38.46L128.45-38.46L127.81-38.46L127.81-38.46Q127.49-38.46 127.17-38.40L127.17-38.40L120.58-4.03L120.58-4.03Q120.83-3.90 121.09-3.90L121.09-3.90L121.60-3.90L121.60-3.90Q123.97-3.90 126.43-5.38L126.43-5.38L126.43-5.38Q128.90-6.85 130.82-9.86L130.82-9.86L130.82-9.86Q135.30-16.83 135.30-28.93ZM165.70 1.28L165.70 1.28L165.70 1.28Q151.62 1.28 151.62-11.97L151.62-11.97L151.62-11.97Q151.62-21.38 156.80-27.46L156.80-27.46L156.80-27.46Q162.30-33.92 171.84-33.92L171.84-33.92L171.84-33.92Q178.75-33.92 182.27-30.72L182.27-30.72L182.27-30.72Q185.79-27.52 185.79-20.80L185.79-20.80L185.79-20.80Q185.79-10.56 180.29-4.61L180.29-4.61L180.29-4.61Q174.91 1.28 165.70 1.28ZM167.36-26.56L167.36-26.56L167.36-26.56Q166.59-24.83 165.98-22.24L165.98-22.24L165.98-22.24Q165.38-19.65 164.61-15.55L164.61-15.55L164.61-15.55Q163.84-11.46 163.84-6.40L163.84-6.40L163.84-6.40Q163.84-4.74 164.38-3.65L164.38-3.65L164.38-3.65Q164.93-2.56 166.40-2.56L166.40-2.56L166.40-2.56Q167.87-2.56 168.80-3.26L168.80-3.26L168.80-3.26Q169.73-3.97 170.43-5.63L170.43-5.63L170.43-5.63Q171.71-8.58 172.74-14.05L172.74-14.05L172.74-14.05Q173.76-19.52 173.86-21.89L173.86-21.89L173.86-21.89Q173.95-24.26 173.95-26.02L173.95-26.02L173.95-26.02Q173.95-27.78 173.44-28.93L173.44-28.93L173.44-28.93Q172.93-30.08 171.49-30.08L171.49-30.08L171.49-30.08Q170.05-30.08 169.09-29.18L169.09-29.18L169.09-29.18Q168.13-28.29 167.36-26.56ZM203.52 1.28L203.52 1.28L203.52 1.28Q189.44 1.28 189.44-11.97L189.44-11.97L189.44-11.97Q189.44-21.38 194.62-27.46L194.62-27.46L194.62-27.46Q200.13-33.92 209.66-33.92L209.66-33.92L209.66-33.92Q216.58-33.92 220.10-30.72L220.10-30.72L220.10-30.72Q223.62-27.52 223.62-20.80L223.62-20.80L223.62-20.80Q223.62-10.56 218.11-4.61L218.11-4.61L218.11-4.61Q212.74 1.28 203.52 1.28ZM205.18-26.56L205.18-26.56L205.18-26.56Q204.42-24.83 203.81-22.24L203.81-22.24L203.81-22.24Q203.20-19.65 202.43-15.55L202.43-15.55L202.43-15.55Q201.66-11.46 201.66-6.40L201.66-6.40L201.66-6.40Q201.66-4.74 202.21-3.65L202.21-3.65L202.21-3.65Q202.75-2.56 204.22-2.56L204.22-2.56L204.22-2.56Q205.70-2.56 206.62-3.26L206.62-3.26L206.62-3.26Q207.55-3.97 208.26-5.63L208.26-5.63L208.26-5.63Q209.54-8.58 210.56-14.05L210.56-14.05L210.56-14.05Q211.58-19.52 211.68-21.89L211.68-21.89L211.68-21.89Q211.78-24.26 211.78-26.02L211.78-26.02L211.78-26.02Q211.78-27.78 211.26-28.93L211.26-28.93L211.26-28.93Q210.75-30.08 209.31-30.08L209.31-30.08L209.31-30.08Q207.87-30.08 206.91-29.18L206.91-29.18L206.91-29.18Q205.95-28.29 205.18-26.56Z" fill="#0a0a0a"></path></g></g><style>text {
  font-size: 64px;
  font-family: Arial Black;
  dominant-baseline: central;
  text-anchor: middle;
}</style></svg>